# xmcd
# Track frame offsets:
# 150
# 10032
# 18505
# 29102
# 39722
# 53037
# 63435
# 74335
# 85550
# 96415
# 107752
# 118702
# 130052
# 141672
# 152997
# 165035
# 174910
# 186442
# 197530
# 208432
# 219602
# 232390
# 243930
# 254187
# 266162
# 275592
# 284270
# 296675
# 308217
# 319165
#
# Disc length: 4407 seconds
# Revision: 0
# Processed by: cddbd v1.5PL3 Copyright (c) Steve Scherf et al.
# Submitted via: VisiTrax 2.9.5.181 - For more info visit www.synapsa.com
#
DISCID=d811351e
DTITLE=Willie Nelson - It's Been Rough and Rocky Travelin'  The Earliest WIll
DTITLE=ie Nelson 1954 - 1963  (3 of 3)
DYEAR=2003
DGENRE=
TTITLE0=Right or Wrong
TTITLE1=Roly Poly
TTITLE2=Let Me Talk to You
TTITLE3=The Things I Might Have Been
TTITLE4=The Way You See Me
TTITLE5=Columbus Stockade Blues [Version 1]
TTITLE6=Together
TTITLE7=You Took My Happy Away [Version 1]
TTITLE8=Second Fiddle
TTITLE9=Opportunity to Cry
TTITLE10=Lonely Little Mansion
TTITLE11=You Took My Happy Away [Version 2]
TTITLE12=Feed It a Memory
TTITLE13=I Hope So
TTITLE14=This Cold War With You
TTITLE15=Blue Must Be the Color of the Blues
TTITLE16=Seasons of My Heart
TTITLE17=At the Bottom
TTITLE18=I'll Walk Alone
TTITLE19=River Boy
TTITLE20=Am I Blue
TTITLE21=Take Me as I Am (Or Let Me Go)
TTITLE22=There'll Be No Teardrops Tonight
TTITLE23=Tomorrow Night (You'll Have Another Sweetheart)
TTITLE24=Columbus Stockade Blues [Version 2]
TTITLE25=Columbus Stockade Blues [Version 3]
TTITLE26=You Wouldn't Cross the Street to Say Goodbye
TTITLE27=River Boy
TTITLE28=At the Bottom
TTITLE29=I Hope So
EXTD=JEK  Bear Family Records BCD 16664 c. 2003
EXTT0=
EXTT1=
EXTT2=
EXTT3=
EXTT4=
EXTT5=
EXTT6=
EXTT7=
EXTT8=
EXTT9=
EXTT10=
EXTT11=
EXTT12=
EXTT13=
EXTT14=
EXTT15=
EXTT16=
EXTT17=
EXTT18=
EXTT19=
EXTT20=
EXTT21=
EXTT22=
EXTT23=
EXTT24=
EXTT25=
EXTT26=
EXTT27=
EXTT28=
EXTT29=
PLAYORDER=
